<?xml version="1.0" standalone="no"?>
<!DOCTYPE svg PUBLIC "-//W3C//DTD SVG 20010904//EN"
 "http://www.w3.org/TR/2001/REC-SVG-20010904/DTD/svg10.dtd">
<svg version="1.0" xmlns="http://www.w3.org/2000/svg"
 width="192.000000pt" height="192.000000pt" viewBox="0 0 192.000000 192.000000"
 preserveAspectRatio="xMidYMid meet">
<metadata>
Created by potrace 1.14, written by Peter Selinger 2001-2017
</metadata>
<g transform="translate(0.000000,192.000000) scale(0.100000,-0.100000)"
fill="#000000" stroke="none">
<path d="M835 1849 c-22 -4 -55 -9 -73 -10 -18 -2 -36 -7 -38 -11 -3 -4 -14
-8 -26 -8 -31 0 -183 -74 -253 -124 -187 -134 -316 -327 -355 -531 -7 -33 -13
-105 -15 -160 -7 -223 72 -431 224 -597 60 -66 199 -174 216 -169 4 2 11 -2
14 -7 13 -20 183 -85 261 -99 48 -9 254 -10 315 -1 94 14 257 73 276 101 3 5
9 7 12 5 12 -6 160 107 207 159 96 105 183 261 205 368 5 22 9 42 10 45 31
101 22 323 -18 440 -19 57 -99 209 -124 236 -12 14 -23 28 -23 32 0 8 -77 87
-133 136 -42 36 -186 126 -208 130 -8 1 -23 7 -34 13 -75 41 -336 72 -440 52z"/>
</g>
</svg>
